<svg width="24" height="24" viewBox="0 0 24 24" fill="none" xmlns="http://www.w3.org/2000/svg">
<path fill-rule="evenodd" clip-rule="evenodd" d="M2.24896 2.29266C1.8582 2.15527 1.43005 2.36068 1.29266 2.75145C1.15527 3.14221 1.36068 3.57036 1.75145 3.70775L2.01266 3.79958C2.68026 4.0343 3.11902 4.18985 3.44186 4.34826C3.74509 4.49704 3.87876 4.61747 3.96682 4.74634C4.05708 4.87842 4.12678 5.05984 4.16611 5.42319C4.20726 5.8034 4.20828 6.29862 4.20828 7.03856V9.7602C4.20828 11.2127 4.22191 12.2601 4.35897 13.0603C4.50529 13.9146 4.79742 14.5263 5.34366 15.1024C5.93752 15.7288 6.69032 16.0015 7.58656 16.1285C8.44479 16.2502 9.53464 16.2502 10.8804 16.2502L16.2861 16.2502C17.0278 16.2502 17.6518 16.2502 18.1568 16.1884C18.6925 16.1229 19.1811 15.9796 19.6076 15.632C20.0341 15.2844 20.2731 14.8349 20.4455 14.3234C20.6079 13.8413 20.7339 13.2301 20.8836 12.5037L21.3925 10.0344L21.3935 10.0298L21.4039 9.97747C21.5686 9.15259 21.7071 8.4587 21.7416 7.90058C21.7777 7.31438 21.711 6.73637 21.3292 6.23998C21.0942 5.93456 20.7639 5.76166 20.4634 5.65607C20.1569 5.54838 19.8103 5.48608 19.4606 5.44698C18.7735 5.37018 17.9389 5.37019 17.1203 5.3702L5.66809 5.3702C5.6648 5.33345 5.66124 5.29731 5.6574 5.26177C5.60367 4.76539 5.48725 4.31268 5.20527 3.90003C4.92109 3.48417 4.54324 3.21784 4.10261 3.00163C3.69052 2.79943 3.16689 2.61536 2.55036 2.39862L2.24896 2.29266ZM5.70828 6.8702H17.089C17.9454 6.8702 18.6991 6.87121 19.2939 6.9377C19.5895 6.97074 19.8107 7.01664 19.9661 7.07125C20.0931 7.11589 20.1361 7.15234 20.1423 7.15762C20.1426 7.15783 20.1422 7.15751 20.1423 7.15762C20.2037 7.23902 20.2704 7.38672 20.2444 7.80818C20.217 8.25174 20.1005 8.844 19.9229 9.73393L19.9225 9.73615L19.4237 12.1563C19.2623 12.9391 19.1537 13.4595 19.024 13.8444C18.9009 14.2097 18.7853 14.3672 18.66 14.4692C18.5348 14.5712 18.3573 14.6527 17.9746 14.6996C17.5714 14.7489 17.0399 14.7502 16.2406 14.7502H10.9377C9.5209 14.7502 8.53783 14.7484 7.79716 14.6434C7.08235 14.542 6.70473 14.3578 6.43219 14.0704C6.11202 13.7327 5.93933 13.402 5.83744 12.8071C5.72628 12.1581 5.70828 11.2492 5.70828 9.7602L5.70828 6.8702Z" fill="#00020A"/>
<path fill-rule="evenodd" clip-rule="evenodd" d="M7.5002 21.7502C6.25756 21.7502 5.2502 20.7428 5.2502 19.5002C5.2502 18.2576 6.25756 17.2502 7.5002 17.2502C8.74285 17.2502 9.7502 18.2576 9.7502 19.5002C9.7502 20.7428 8.74285 21.7502 7.5002 21.7502ZM6.7502 19.5002C6.7502 19.9144 7.08599 20.2502 7.5002 20.2502C7.91442 20.2502 8.2502 19.9144 8.2502 19.5002C8.2502 19.086 7.91442 18.7502 7.5002 18.7502C7.08599 18.7502 6.7502 19.086 6.7502 19.5002Z" fill="#00020A"/>
<path fill-rule="evenodd" clip-rule="evenodd" d="M16.5002 21.7503C15.2576 21.7503 14.2502 20.7429 14.2502 19.5003C14.2502 18.2576 15.2576 17.2503 16.5002 17.2503C17.7428 17.2503 18.7502 18.2576 18.7502 19.5003C18.7502 20.7429 17.7428 21.7503 16.5002 21.7503ZM15.7502 19.5003C15.7502 19.9145 16.086 20.2503 16.5002 20.2503C16.9144 20.2503 17.2502 19.9145 17.2502 19.5003C17.2502 19.0861 16.9144 18.7503 16.5002 18.7503C16.086 18.7503 15.7502 19.0861 15.7502 19.5003Z" fill="#00020A"/>
</svg>
