<svg width="400" height="400" viewBox="0 0 400 400" fill="none" xmlns="http://www.w3.org/2000/svg">
<rect width="400" height="400" rx="200" fill="#5865F2"/>
<path d="M294.562 114.722C276.757 106.592 257.961 100.823 238.653 97.5649C236.011 102.276 233.62 107.123 231.491 112.086C210.925 108.995 190.01 108.995 169.443 112.086C167.313 107.124 164.923 102.277 162.281 97.5649C142.961 100.851 124.152 106.633 106.33 114.765C70.9467 166.982 61.3549 217.902 66.1508 268.099C86.8719 283.369 110.065 294.983 134.721 302.435C140.273 294.987 145.186 287.085 149.407 278.814C141.389 275.827 133.65 272.142 126.28 267.801C128.22 266.398 130.117 264.952 131.95 263.549C153.395 273.608 176.801 278.824 200.499 278.824C224.197 278.824 247.603 273.608 269.048 263.549C270.903 265.058 272.8 266.504 274.718 267.801C267.334 272.149 259.581 275.841 251.549 278.835C255.765 287.103 260.678 294.998 266.235 302.435C290.912 295.013 314.123 283.405 334.848 268.12V268.12C340.475 209.908 325.235 159.455 294.562 114.722ZM155.482 237.228C142.118 237.228 131.076 225.13 131.076 210.248C131.076 195.365 141.734 183.161 155.439 183.161C169.145 183.161 180.101 195.365 179.866 210.248C179.632 225.13 169.102 237.228 155.482 237.228ZM245.517 237.228C232.131 237.228 221.132 225.13 221.132 210.248C221.132 195.365 231.79 183.161 245.517 183.161C259.243 183.161 270.114 195.365 269.88 210.248C269.645 225.13 259.137 237.228 245.517 237.228Z" fill="white"/>
</svg>
