<svg width="24" height="24" viewBox="0 0 24 24" fill="none" xmlns="http://www.w3.org/2000/svg">
<g clip-path="url(#clip0_772_2652)">
<path d="M15.3929 4.05365L14.5567 4.98276L14.5567 4.98276L15.3929 4.05365ZM19.3517 7.61654L18.5155 8.54566L18.5155 8.54566L19.3517 7.61654ZM21.654 10.1541L20.5121 10.6626L20.5121 10.6626L21.654 10.1541ZM3.17157 20.8284L4.05546 19.9445L4.05546 19.9445L3.17157 20.8284ZM20.8284 20.8284L19.9445 19.9445L19.9445 19.9445L20.8284 20.8284ZM14 20.75H10V23.25H14V20.75ZM3.25 14V10H0.75V14H3.25ZM20.75 13.5629V14H23.25V13.5629H20.75ZM14.5567 4.98276L18.5155 8.54566L20.1879 6.68743L16.2291 3.12453L14.5567 4.98276ZM23.25 13.5629C23.25 11.9187 23.2752 10.7219 22.7959 9.64555L20.5121 10.6626C20.7248 11.1401 20.75 11.6979 20.75 13.5629H23.25ZM18.5155 8.54566C19.9018 9.79329 20.2995 10.1852 20.5121 10.6626L22.7959 9.64555C22.3165 8.56922 21.41 7.78734 20.1879 6.68743L18.5155 8.54566ZM10.0298 3.25C11.6494 3.25 12.136 3.2693 12.5614 3.43254L13.4571 1.09849C12.4986 0.730702 11.4601 0.75 10.0298 0.75V3.25ZM16.2291 3.12453C15.1711 2.17225 14.4153 1.46622 13.4571 1.09849L12.5614 3.43254C12.987 3.59586 13.3591 3.90489 14.5567 4.98276L16.2291 3.12453ZM10 20.75C8.07904 20.75 6.76408 20.7473 5.77747 20.6147C4.82683 20.4869 4.37028 20.2594 4.05546 19.9445L2.28769 21.7123C3.14444 22.5691 4.21649 22.9273 5.44435 23.0924C6.63626 23.2527 8.14972 23.25 10 23.25V20.75ZM0.75 14C0.75 15.8503 0.747345 17.3637 0.907593 18.5556C1.07268 19.7835 1.43094 20.8556 2.28769 21.7123L4.05546 19.9445C3.74063 19.6297 3.51311 19.1732 3.3853 18.2225C3.25265 17.2359 3.25 15.921 3.25 14H0.75ZM14 23.25C15.8503 23.25 17.3637 23.2527 18.5556 23.0924C19.7835 22.9273 20.8556 22.5691 21.7123 21.7123L19.9445 19.9445C19.6297 20.2594 19.1732 20.4869 18.2225 20.6147C17.2359 20.7473 15.921 20.75 14 20.75V23.25ZM20.75 14C20.75 15.921 20.7473 17.2359 20.6147 18.2225C20.4869 19.1732 20.2594 19.6297 19.9445 19.9445L21.7123 21.7123C22.5691 20.8556 22.9273 19.7835 23.0924 18.5556C23.2527 17.3637 23.25 15.8503 23.25 14H20.75ZM3.25 10C3.25 8.07904 3.25265 6.76408 3.3853 5.77747C3.51311 4.82683 3.74063 4.37028 4.05546 4.05546L2.28769 2.28769C1.43094 3.14444 1.07268 4.21649 0.907593 5.44435C0.747345 6.63626 0.75 8.14972 0.75 10H3.25ZM10.0298 0.75C8.16946 0.75 6.64897 0.747368 5.45254 0.907494C4.2211 1.07231 3.14541 1.42997 2.28769 2.28769L4.05546 4.05546C4.36931 3.74161 4.82718 3.51348 5.78418 3.3854C6.77619 3.25263 8.09902 3.25 10.0298 3.25V0.75Z" fill="#76D490"/>
<path d="M11.75 2.5V5H14.25V2.5H11.75ZM18 11.25H22V8.75H18V11.25ZM11.75 5C11.75 6.14317 11.7473 7.1263 11.8527 7.90974C11.9628 8.72913 12.2113 9.51457 12.8483 10.1517L14.6161 8.38388C14.521 8.28873 14.4033 8.11879 14.3304 7.57662C14.2527 6.99849 14.25 6.21385 14.25 5H11.75ZM18 8.75C16.7862 8.75 16.0015 8.74735 15.4234 8.66962C14.8812 8.59672 14.7113 8.47904 14.6161 8.38388L12.8483 10.1517C13.4854 10.7887 14.2709 11.0372 15.0903 11.1473C15.8737 11.2527 16.8568 11.25 18 11.25V8.75Z" fill="#76D490"/>
<ellipse cx="17" cy="14.5" rx="1" ry="1.5" fill="#76D490"/>
<path d="M9.69338 16.4599C9.11896 16.077 8.34288 16.2322 7.95994 16.8066C7.577 17.381 7.73221 18.1571 8.30662 18.5401L9.69338 16.4599ZM15.6934 18.5401C16.2678 18.1571 16.423 17.381 16.0401 16.8066C15.6571 16.2322 14.881 16.077 14.3066 16.4599L15.6934 18.5401ZM8.30662 18.5401C10.5432 20.0311 13.4568 20.0311 15.6934 18.5401L14.3066 16.4599C12.9098 17.3911 11.0902 17.3911 9.69338 16.4599L8.30662 18.5401Z" fill="#76D490"/>
<ellipse cx="7" cy="14.5" rx="1" ry="1.5" fill="#76D490"/>
</g>
<defs>
<clipPath id="clip0_772_2652">
<rect width="24" height="24" fill="white"/>
</clipPath>
</defs>
</svg>
