<svg width="24" height="24" viewBox="0 0 24 24" fill="none" xmlns="http://www.w3.org/2000/svg">
<circle cx="12" cy="12" r="10" stroke="white" stroke-width="1.5"/>
<path d="M8.91211 15.9336C10.1704 16.249 11.5981 16.2492 13.0346 15.8642C14.4712 15.4793 15.7075 14.7653 16.6395 13.863" stroke="white" stroke-width="1.5" stroke-linecap="round"/>
<ellipse cx="14.5104" cy="9.77405" rx="1" ry="1.5" transform="rotate(-15 14.5104 9.77405)" fill="white"/>
<ellipse cx="8.71353" cy="11.3268" rx="1" ry="1.5" transform="rotate(-15 8.71353 11.3268)" fill="white"/>
<path d="M13.478 16.9742L14.1513 16.6437L14.1513 16.6437L13.478 16.9742ZM16.1708 15.6524L16.8441 15.322L16.8441 15.322L16.1708 15.6524ZM15.4661 17.6689L15.1452 16.9911L15.1452 16.9911L15.4661 17.6689ZM12.3267 16.3309L12.8047 17.3047L14.1513 16.6437L13.6733 15.6699L12.3267 16.3309ZM16.8441 15.322L16.3848 14.3863L15.0383 15.0473L15.4975 15.9829L16.8441 15.322ZM15.787 18.3468C16.9214 17.8098 17.3971 16.4486 16.8441 15.322L15.4975 15.9829C15.6818 16.3584 15.5233 16.8121 15.1452 16.9911L15.787 18.3468ZM12.8047 17.3047C13.3468 18.4089 14.6752 18.8732 15.787 18.3468L15.1452 16.9911C14.7747 17.1665 14.3319 17.0118 14.1513 16.6437L12.8047 17.3047Z" fill="white"/>
</svg>
