<svg width="38" height="38" viewBox="0 0 38 38" fill="none" xmlns="http://www.w3.org/2000/svg">
<path d="M27.5725 16.4892C28.5 15.5617 28.5 14.0689 28.5 11.0833C28.5 8.09777 28.5 6.60499 27.5725 5.67749M27.5725 16.4892C26.645 17.4167 25.1522 17.4167 22.1667 17.4167H15.8333C12.8478 17.4167 11.355 17.4167 10.4275 16.4892M27.5725 16.4892C27.5725 16.4892 27.5725 16.4892 27.5725 16.4892ZM27.5725 5.67749C26.645 4.75 25.1522 4.75 22.1667 4.75L15.8333 4.75C12.8478 4.75 11.355 4.75 10.4275 5.6775M27.5725 5.67749C27.5725 5.67749 27.5725 5.67749 27.5725 5.67749ZM10.4275 5.6775C9.5 6.60499 9.5 8.09777 9.5 11.0833C9.5 14.0689 9.5 15.5617 10.4275 16.4892M10.4275 5.6775C10.4275 5.6775 10.4275 5.6775 10.4275 5.6775ZM10.4275 16.4892C10.4275 16.4892 10.4275 16.4892 10.4275 16.4892Z" stroke="#8485F4" stroke-width="2.5"/>
<path d="M20.5846 11.0833C20.5846 11.9578 19.8758 12.6667 19.0013 12.6667C18.1269 12.6667 17.418 11.9578 17.418 11.0833C17.418 10.2089 18.1269 9.5 19.0013 9.5C19.8758 9.5 20.5846 10.2089 20.5846 11.0833Z" stroke="#8485F4" stroke-width="2.5"/>
<path d="M28.5 10.75C29.1904 10.75 29.75 10.1904 29.75 9.5C29.75 8.80964 29.1904 8.25 28.5 8.25V10.75ZM25 4.75C25 4.05964 24.4404 3.5 23.75 3.5C23.0596 3.5 22.5 4.05964 22.5 4.75H25ZM28.5 8.25C26.567 8.25 25 6.683 25 4.75H22.5C22.5 8.06371 25.1863 10.75 28.5 10.75V8.25Z" fill="#8485F4"/>
<path d="M28.5 13.917C29.1904 13.917 29.75 13.3573 29.75 12.667C29.75 11.9766 29.1904 11.417 28.5 11.417V13.917ZM22.5 17.417C22.5 18.1073 23.0596 18.667 23.75 18.667C24.4404 18.667 25 18.1073 25 17.417H22.5ZM28.5 11.417C25.1863 11.417 22.5 14.1033 22.5 17.417H25C25 15.484 26.567 13.917 28.5 13.917V11.417Z" fill="#8485F4"/>
<path d="M9.5 8.25C8.80964 8.25 8.25 8.80964 8.25 9.5C8.25 10.1904 8.80964 10.75 9.5 10.75V8.25ZM15.5 4.75C15.5 4.05964 14.9404 3.5 14.25 3.5C13.5596 3.5 13 4.05964 13 4.75H15.5ZM9.5 10.75C12.8137 10.75 15.5 8.06371 15.5 4.75H13C13 6.683 11.433 8.25 9.5 8.25V10.75Z" fill="#8485F4"/>
<path d="M9.5 11.417C8.80964 11.417 8.25 11.9766 8.25 12.667C8.25 13.3573 8.80964 13.917 9.5 13.917V11.417ZM13 17.417C13 18.1073 13.5596 18.667 14.25 18.667C14.9404 18.667 15.5 18.1073 15.5 17.417H13ZM9.5 13.917C11.433 13.917 13 15.484 13 17.417H15.5C15.5 14.1033 12.8137 11.417 9.5 11.417V13.917Z" fill="#8485F4"/>
<path d="M6.33203 32.6149C5.64168 32.6149 5.08203 33.1746 5.08203 33.8649C5.08203 34.5553 5.64168 35.1149 6.33203 35.1149V32.6149ZM28.8227 25.2435L28.0692 24.2461L28.0692 24.2461L28.8227 25.2435ZM25.9613 27.405L25.2078 26.4076L25.2078 26.4076L25.9613 27.405ZM21.8155 24.9785L21.1752 26.0521L21.1752 26.0521L21.8155 24.9785ZM22.5272 25.56L21.5936 26.3911L21.5936 26.3911L22.5272 25.56ZM22.1979 29.244L22.0011 28.0096L22.0011 28.0096L22.1979 29.244ZM21.4795 29.3378L21.3518 28.0944L21.3518 28.0944L21.4795 29.3378ZM18.7232 28.0989C18.0359 28.034 17.4261 28.5385 17.3612 29.2258C17.2963 29.9131 17.8009 30.5229 18.4882 30.5878L18.7232 28.0989ZM27.0697 33.387L27.6131 34.5127L27.6131 34.5127L27.0697 33.387ZM30.4303 31.2644L31.2796 32.1814L31.2796 32.1814L30.4303 31.2644ZM32.9493 27.9787L31.8888 27.317L31.8888 27.317L32.9493 27.9787ZM22.3281 28.9394L23.15 29.8811L23.15 29.8811L22.3281 28.9394ZM5.60894 26.2817C5.04581 26.681 4.91305 27.4613 5.31241 28.0244C5.71176 28.5875 6.492 28.7203 7.05512 28.3209L5.60894 26.2817ZM32.3375 25.2431L33.0908 24.2456L33.0908 24.2456L32.3375 25.2431ZM23.1264 34.5384L22.9266 33.3045L22.9266 33.3045L23.1264 34.5384ZM14.6862 34.3526L14.9384 33.1283L14.9384 33.1283L14.6862 34.3526ZM6.33203 35.1149H9.91026V32.6149H6.33203V35.1149ZM28.0692 24.2461L25.2078 26.4076L26.7147 28.4024L29.5761 26.2409L28.0692 24.2461ZM21.1752 26.0521C21.3444 26.153 21.4822 26.266 21.5936 26.3911L23.4609 24.7288C23.1622 24.3933 22.8202 24.1223 22.4559 23.905L21.1752 26.0521ZM22.0011 28.0096C21.8451 28.0345 21.6809 28.0573 21.5091 28.0772L21.7968 30.5606C22.0044 30.5365 22.2039 30.5089 22.3948 30.4784L22.0011 28.0096ZM21.5091 28.0772C21.4573 28.0832 21.4049 28.0889 21.3518 28.0944L21.6071 30.5813C21.6711 30.5747 21.7343 30.5678 21.7968 30.5606L21.5091 28.0772ZM21.3518 28.0944C20.5995 28.1716 19.7123 28.1923 18.7232 28.0989L18.4882 30.5878C19.6505 30.6976 20.7022 30.6742 21.6072 30.5813L21.3518 28.0944ZM27.6131 34.5127C28.7373 33.9701 30.2292 33.1544 31.2796 32.1814L29.5809 30.3473C28.8169 31.0549 27.6073 31.7395 26.5263 32.2613L27.6131 34.5127ZM31.2796 32.1814C32.3183 31.2194 33.3362 29.7201 34.0099 28.6403L31.8888 27.317C31.2231 28.3841 30.354 29.6312 29.5809 30.3473L31.2796 32.1814ZM21.5061 27.9976C21.4443 28.0516 21.3989 28.0826 21.3717 28.0983C21.3439 28.1143 21.3511 28.1052 21.391 28.0966L21.9149 30.5411C22.4411 30.4284 22.8604 30.1339 23.15 29.8811L21.5061 27.9976ZM21.391 28.0966C21.4121 28.0921 21.4422 28.0878 21.4795 28.0878V30.5878C21.6323 30.5878 21.7782 30.5704 21.9149 30.5411L21.391 28.0966ZM21.5936 26.3911C22.0291 26.8803 21.985 27.5797 21.5061 27.9976L23.15 29.8811C24.708 28.5213 24.7926 26.2247 23.4609 24.7288L21.5936 26.3911ZM22.4559 23.905C19.8788 22.3679 16.6988 22.2409 13.7363 22.8149C10.758 23.3919 7.82999 24.7065 5.60894 26.2817L7.05512 28.3209C8.99732 26.9436 11.5965 25.776 14.2118 25.2693C16.843 24.7595 19.3232 24.9474 21.1752 26.0521L22.4559 23.905ZM25.2078 26.4076C24.1339 27.2188 23.1274 27.83 22.0011 28.0096L22.3948 30.4784C24.1545 30.1977 25.5707 29.2666 26.7147 28.4024L25.2078 26.4076ZM33.0908 24.2456C31.636 23.1471 29.5238 23.1473 28.0692 24.2461L29.5761 26.2409C30.1391 25.8156 31.0212 25.8155 31.5843 26.2407L33.0908 24.2456ZM31.5843 26.2407C32.0555 26.5965 32.0701 27.0264 31.8888 27.317L34.0099 28.6403C34.977 27.0901 34.4362 25.2615 33.0908 24.2456L31.5843 26.2407ZM23.3261 35.7724C24.7618 35.54 26.2415 35.1747 27.6131 34.5127L26.5263 32.2613C25.455 32.7784 24.2359 33.0926 22.9266 33.3045L23.3261 35.7724ZM14.434 35.5769C17.3364 36.1748 20.3906 36.2476 23.3261 35.7724L22.9266 33.3045C20.2948 33.7305 17.5468 33.6657 14.9384 33.1283L14.434 35.5769ZM9.91026 35.1149C11.4254 35.1149 12.9586 35.2729 14.434 35.5769L14.9384 33.1283C13.2985 32.7904 11.5962 32.6149 9.91026 32.6149V35.1149Z" fill="#8485F4"/>
</svg>
