<svg width="121" height="53" viewBox="0 0 121 53" fill="none" xmlns="http://www.w3.org/2000/svg">
<g clip-path="url(#clip0_204_2)">
<path fill-rule="evenodd" clip-rule="evenodd" d="M7.41504 44.2843V44.7953C7.41504 49.0116 10.833 52.4296 15.0493 52.4296H113.341C117.557 52.4296 120.975 49.0116 120.975 44.7953V15.2124C120.975 11.2192 117.909 7.94197 114.003 7.60645C114.003 7.61577 114.003 7.6251 114.003 7.63443V8.56482C117.382 8.89721 120.021 11.7466 120.021 15.2124V44.7953C120.021 48.4846 117.03 51.4753 113.341 51.4753H15.0493C11.3601 51.4753 8.36933 48.4846 8.36933 44.7953V44.3721C8.04542 44.3639 7.72687 44.3342 7.41504 44.2843Z" fill="#D4D4D4"/>
<path d="M36.0451 8.11133H12.5536C10.608 8.11133 9.03076 9.68857 9.03076 11.6342V33.2171C9.03076 35.1627 10.608 36.7399 12.5536 36.7399H36.0451C37.9907 36.7399 39.568 35.1627 39.568 33.2171V11.6342C39.568 9.68857 37.9907 8.11133 36.0451 8.11133Z" fill="#F5F5F5" stroke="#D4D4D4" stroke-width="0.954287"/>
<path d="M103.982 16.2229H46.7251C45.4075 16.2229 44.3394 17.291 44.3394 18.6086C44.3394 19.9262 45.4075 20.9943 46.7251 20.9943H103.982C105.3 20.9943 106.368 19.9262 106.368 18.6086C106.368 17.291 105.3 16.2229 103.982 16.2229Z" fill="#F5F5F5" stroke="#D4D4D4" stroke-width="0.954287"/>
<path d="M71.5365 23.8572H46.7251C45.4075 23.8572 44.3394 24.9253 44.3394 26.2429C44.3394 27.5605 45.4075 28.6286 46.7251 28.6286H71.5365C72.8541 28.6286 73.9223 27.5605 73.9223 26.2429C73.9223 24.9253 72.8541 23.8572 71.5365 23.8572Z" fill="#F5F5F5" stroke="#D4D4D4" stroke-width="0.954287"/>
<path d="M103.982 23.8572H79.1704C77.8528 23.8572 76.7847 24.9253 76.7847 26.2429C76.7847 27.5605 77.8528 28.6286 79.1704 28.6286H103.982C105.299 28.6286 106.368 27.5605 106.368 26.2429C106.368 24.9253 105.299 23.8572 103.982 23.8572Z" fill="#F5F5F5" stroke="#D4D4D4" stroke-width="0.954287"/>
<path d="M106.846 0.477173H8.55412C4.60134 0.477173 1.39697 3.68154 1.39697 7.63432V37.2172C1.39697 41.17 4.60134 44.3744 8.55412 44.3744H106.846C110.799 44.3744 114.003 41.17 114.003 37.2172V7.63432C114.003 3.68154 110.799 0.477173 106.846 0.477173Z" stroke="#D4D4D4" stroke-width="0.954287"/>
</g>
<defs>
<clipPath id="clip0_204_2">
<rect width="121" height="53" fill="white"/>
</clipPath>
</defs>
</svg>
