<svg width="400" height="400" viewBox="0 0 400 400" fill="none" xmlns="http://www.w3.org/2000/svg">
<path d="M344.13 44.5703L219.209 137.351L242.31 82.6117L344.13 44.5703Z" fill="#E2761B" stroke="#E2761B" stroke-linecap="round" stroke-linejoin="round"/>
<path d="M55.7441 44.5703L179.661 138.23L157.69 82.6117L55.7441 44.5703Z" fill="#E4761B" stroke="#E4761B" stroke-linecap="round" stroke-linejoin="round"/>
<path d="M299.184 259.636L265.913 310.609L337.1 330.194L357.564 260.766L299.184 259.636Z" fill="#E4761B" stroke="#E4761B" stroke-linecap="round" stroke-linejoin="round"/>
<path d="M42.561 260.766L62.9 330.194L134.086 310.609L100.816 259.636L42.561 260.766Z" fill="#E4761B" stroke="#E4761B" stroke-linecap="round" stroke-linejoin="round"/>
<path d="M130.069 173.51L110.232 203.516L180.917 206.655L178.406 130.697L130.069 173.51Z" fill="#E4761B" stroke="#E4761B" stroke-linecap="round" stroke-linejoin="round"/>
<path d="M269.805 173.51L220.841 129.818L219.209 206.655L289.768 203.516L269.805 173.51Z" fill="#E4761B" stroke="#E4761B" stroke-linecap="round" stroke-linejoin="round"/>
<path d="M134.087 310.609L176.523 289.894L139.862 261.269L134.087 310.609Z" fill="#E4761B" stroke="#E4761B" stroke-linecap="round" stroke-linejoin="round"/>
<path d="M223.352 289.894L265.913 310.609L260.012 261.269L223.352 289.894Z" fill="#E4761B" stroke="#E4761B" stroke-linecap="round" stroke-linejoin="round"/>
<path d="M265.913 310.61L223.352 289.895L226.741 317.641L226.365 329.317L265.913 310.61Z" fill="#D7C1B3" stroke="#D7C1B3" stroke-linecap="round" stroke-linejoin="round"/>
<path d="M134.086 310.61L173.634 329.317L173.383 317.641L176.522 289.895L134.086 310.61Z" fill="#D7C1B3" stroke="#D7C1B3" stroke-linecap="round" stroke-linejoin="round"/>
<path d="M174.262 242.937L138.857 232.517L163.842 221.092L174.262 242.937Z" fill="#233447" stroke="#233447" stroke-linecap="round" stroke-linejoin="round"/>
<path d="M225.612 242.937L236.033 221.092L261.143 232.517L225.612 242.937Z" fill="#233447" stroke="#233447" stroke-linecap="round" stroke-linejoin="round"/>
<path d="M134.086 310.609L140.112 259.636L100.815 260.766L134.086 310.609Z" fill="#CD6116" stroke="#CD6116" stroke-linecap="round" stroke-linejoin="round"/>
<path d="M259.887 259.636L265.913 310.609L299.184 260.766L259.887 259.636Z" fill="#CD6116" stroke="#CD6116" stroke-linecap="round" stroke-linejoin="round"/>
<path d="M289.767 203.516L219.208 206.654L225.737 242.938L236.157 221.093L261.267 232.517L289.767 203.516Z" fill="#CD6116" stroke="#CD6116" stroke-linecap="round" stroke-linejoin="round"/>
<path d="M138.857 232.517L163.967 221.093L174.262 242.938L180.916 206.654L110.231 203.516L138.857 232.517Z" fill="#CD6116" stroke="#CD6116" stroke-linecap="round" stroke-linejoin="round"/>
<path d="M110.231 203.516L139.861 261.268L138.857 232.517L110.231 203.516Z" fill="#E4751F" stroke="#E4751F" stroke-linecap="round" stroke-linejoin="round"/>
<path d="M261.267 232.517L260.012 261.268L289.767 203.516L261.267 232.517Z" fill="#E4751F" stroke="#E4751F" stroke-linecap="round" stroke-linejoin="round"/>
<path d="M180.916 206.654L174.262 242.938L182.548 285.75L184.431 229.379L180.916 206.654Z" fill="#E4751F" stroke="#E4751F" stroke-linecap="round" stroke-linejoin="round"/>
<path d="M219.208 206.654L215.818 229.253L217.325 285.75L225.737 242.938L219.208 206.654Z" fill="#E4751F" stroke="#E4751F" stroke-linecap="round" stroke-linejoin="round"/>
<path d="M225.738 242.938L217.326 285.75L223.353 289.894L260.013 261.268L261.268 232.518L225.738 242.938Z" fill="#F6851B" stroke="#F6851B" stroke-linecap="round" stroke-linejoin="round"/>
<path d="M138.857 232.518L139.862 261.268L176.522 289.894L182.549 285.75L174.262 242.938L138.857 232.518Z" fill="#F6851B" stroke="#F6851B" stroke-linecap="round" stroke-linejoin="round"/>
<path d="M226.365 329.316L226.741 317.64L223.603 314.878H176.27L173.383 317.64L173.634 329.316L134.086 310.609L147.896 321.909L175.894 341.369H223.979L252.102 321.909L265.913 310.609L226.365 329.316Z" fill="#C0AD9E" stroke="#C0AD9E" stroke-linecap="round" stroke-linejoin="round"/>
<path d="M223.352 289.893L217.326 285.75H182.549L176.523 289.893L173.384 317.639L176.271 314.877H223.603L226.742 317.639L223.352 289.893Z" fill="#161616" stroke="#161616" stroke-linecap="round" stroke-linejoin="round"/>
<path d="M349.403 143.378L360.075 92.1535L344.13 44.5703L223.352 134.213L269.805 173.509L335.467 192.718L350.031 175.769L343.753 171.25L353.797 162.084L346.013 156.058L356.057 148.4L349.403 143.378Z" fill="#763D16" stroke="#763D16" stroke-linecap="round" stroke-linejoin="round"/>
<path d="M39.9243 92.1535L50.596 143.378L43.8163 148.4L53.8603 156.058L46.2018 162.084L56.2457 171.25L49.9683 175.769L64.4064 192.718L130.069 173.509L176.522 134.213L55.7435 44.5703L39.9243 92.1535Z" fill="#763D16" stroke="#763D16" stroke-linecap="round" stroke-linejoin="round"/>
<path d="M335.468 192.719L269.806 173.51L289.768 203.516L260.013 261.269L299.184 260.767H357.564L335.468 192.719Z" fill="#F6851B" stroke="#F6851B" stroke-linecap="round" stroke-linejoin="round"/>
<path d="M130.069 173.51L64.4066 192.719L42.561 260.767H100.816L139.862 261.269L110.232 203.516L130.069 173.51Z" fill="#F6851B" stroke="#F6851B" stroke-linecap="round" stroke-linejoin="round"/>
<path d="M219.209 206.654L223.352 134.212L242.435 82.6113H157.689L176.522 134.212L180.916 206.654L182.423 229.504L182.548 285.75H217.325L217.576 229.504L219.209 206.654Z" fill="#F6851B" stroke="#F6851B" stroke-linecap="round" stroke-linejoin="round"/>
</svg>
