<svg width="1000" height="1000" viewBox="0 0 1000 1000" fill="none" xmlns="http://www.w3.org/2000/svg">
<circle cx="500" cy="500" r="500" fill="#FF0420"/>
<path d="M652.1 840L465.9 593.6L537.3 546L720.7 790.3L652.1 840ZM500.2 770C464.733 770 432.067 763.7 402.2 751.1C372.8 738.5 346.9 721 324.5 698.6C302.567 675.733 285.533 648.9 273.4 618.1C261.267 587.3 255.2 553.7 255.2 517.3C255.2 480.9 261.267 447.3 273.4 416.5C285.533 385.7 302.567 359.1 324.5 336.7C346.9 313.833 372.8 296.1 402.2 283.5C432.067 270.9 464.733 264.6 500.2 264.6C535.2 264.6 567.633 270.9 597.5 283.5C627.367 296.1 653.267 313.833 675.2 336.7C697.133 359.567 714.167 386.4 726.3 417.2C738.433 448 744.5 481.367 744.5 517.3C744.5 553.7 738.433 587.3 726.3 618.1C714.167 648.433 697.133 675.033 675.2 697.9C653.267 720.767 627.367 738.5 597.5 751.1C567.633 763.7 535.2 770 500.2 770ZM500.2 683.2C522.6 683.2 542.9 679.233 561.1 671.3C579.767 662.9 595.867 651.233 609.4 636.3C622.933 621.367 633.433 603.867 640.9 583.8C648.833 563.267 652.8 541.1 652.8 517.3C652.8 493.5 648.833 471.567 640.9 451.5C633.433 430.967 622.933 413.233 609.4 398.3C595.867 383.367 579.767 371.933 561.1 364C542.9 355.6 522.6 351.4 500.2 351.4C477.8 351.4 457.267 355.6 438.6 364C420.4 371.933 404.3 383.367 390.3 398.3C376.767 413.233 366.267 430.733 358.8 450.8C351.333 470.867 347.6 493.033 347.6 517.3C347.6 549.5 354.133 578.2 367.2 603.4C380.267 628.133 398.233 647.733 421.1 662.2C443.967 676.2 470.333 683.2 500.2 683.2Z" fill="white"/>
</svg>