<svg width="14" height="15" viewBox="0 0 14 15" fill="none" xmlns="http://www.w3.org/2000/svg">
<path d="M6.99992 14.1667C3.31792 14.1667 0.333252 11.182 0.333252 7.50001C0.333252 3.81801 3.31792 0.833344 6.99992 0.833344C10.6819 0.833344 13.6666 3.81801 13.6666 7.50001C13.6666 11.182 10.6819 14.1667 6.99992 14.1667ZM6.99992 12.8333C8.41441 12.8333 9.77096 12.2714 10.7712 11.2712C11.7713 10.2711 12.3333 8.9145 12.3333 7.50001C12.3333 6.08552 11.7713 4.72897 10.7712 3.72877C9.77096 2.72858 8.41441 2.16668 6.99992 2.16668C5.58543 2.16668 4.22888 2.72858 3.22868 3.72877C2.22849 4.72897 1.66659 6.08552 1.66659 7.50001C1.66659 8.9145 2.22849 10.2711 3.22868 11.2712C4.22888 12.2714 5.58543 12.8333 6.99992 12.8333ZM4.99992 4.83334H8.99992L10.6666 7.16668L6.99992 10.8333L3.33325 7.16668L4.99992 4.83334ZM5.68658 6.16668L5.07325 7.02668L6.99992 8.95334L8.92659 7.02668L8.31325 6.16668H5.68658Z" fill="#A3A3A3"/>
</svg>
