<svg width="34" height="25" viewBox="0 0 34 25" fill="none" xmlns="http://www.w3.org/2000/svg">
<path d="M33.9719 1.66394C33.8174 2.12812 33.3959 2.45102 32.9464 2.77393C29.5469 5.20581 26.1473 7.65788 22.7477 10.0898C22.6494 10.1604 22.537 10.2108 22.3965 10.2815C22.7899 10.564 23.127 10.7961 23.4642 11.0383C23.7732 11.2603 24.0823 11.4722 24.3773 11.6942C25.0937 12.2391 25.0937 12.9253 24.3773 13.4601C24.0682 13.6922 23.7451 13.9041 23.4501 14.1362C23.3237 14.227 23.2254 14.3582 23.1832 14.4793C22.1718 17.4863 21.1744 20.5035 20.1911 23.5206C20.0506 23.9343 19.7977 24.2472 19.2499 24.4187C19.0953 24.4187 18.9408 24.4187 18.7863 24.4187C18.5053 24.3077 18.2103 24.2169 17.9575 24.0857C14.6703 22.3299 11.5798 20.4227 8.68595 18.344C5.76401 16.2451 3.05279 14.005 0.580389 11.6236C0.482055 11.5327 0.383721 11.452 0.299434 11.3612C-0.290571 10.786 0.0184826 10.1301 0.987778 9.95858C2.06945 9.76685 3.15113 9.58522 4.24686 9.39349C7.4357 8.84859 10.6386 8.30369 13.8274 7.74869C13.996 7.71842 14.1646 7.63769 14.305 7.55697C14.6141 7.35515 14.881 7.14325 15.176 6.94143C16.0048 6.35616 16.9601 6.35616 17.7748 6.94143C18.3929 7.37533 18.997 7.81933 19.6291 8.27342C19.7275 8.20278 19.8258 8.14224 19.9101 8.0716C23.408 5.55899 26.9059 3.04638 30.4038 0.533773C31.0078 0.0998684 31.6962 -0.112038 32.539 0.0595056C33.2133 0.200777 33.6629 0.51359 33.8876 0.997949C33.9157 1.06858 33.9579 1.12913 34 1.18967C33.9719 1.34104 33.9719 1.50249 33.9719 1.66394ZM16.9179 17.3955C16.8617 17.5065 16.8336 17.5872 16.8055 17.6579C16.3701 18.5459 15.9486 19.4238 15.4991 20.3017C15.4289 20.453 15.457 20.5236 15.6255 20.6246C16.4122 21.0685 17.1989 21.5327 17.9715 21.9868C18.0417 22.0272 18.126 22.0675 18.2103 22.1079C18.2384 22.0272 18.2665 21.9767 18.2946 21.9263C19.0813 19.5448 19.882 17.1533 20.6546 14.7618C20.6827 14.671 20.6125 14.5297 20.5282 14.4591C18.3087 12.8546 16.0891 11.2603 13.8696 9.66595C13.715 9.55495 13.5746 9.53476 13.3779 9.57513C10.7229 10.0292 8.06785 10.4833 5.41282 10.9374C4.68234 11.0585 3.9659 11.1897 3.22137 11.3208C3.24946 11.3612 3.24946 11.3915 3.27756 11.4016C4.02209 12.0676 4.76662 12.7235 5.4971 13.3895C5.62353 13.5105 5.74996 13.4803 5.89044 13.4399C7.09855 13.1271 8.30666 12.8244 9.51477 12.5116C9.62715 12.4813 9.73952 12.4611 9.85191 12.4409C9.86595 12.451 9.88 12.4712 9.88 12.4813C8.91071 13.1775 7.92737 13.8738 6.92998 14.5903C7.89927 15.3269 8.82642 16.0433 9.75357 16.7497C10.5402 16.3965 11.2848 16.0635 12.0293 15.7204C12.0434 15.7406 12.0715 15.7507 12.0855 15.7709C11.6079 16.3057 11.1443 16.8506 10.6526 17.4056C11.7343 18.1321 12.8019 18.8486 13.8977 19.5751C14.895 18.8385 15.8784 18.1321 16.9179 17.3955Z" fill="#8485F4"/>
</svg>
