<svg width="400" height="400" viewBox="0 0 400 400" fill="none" xmlns="http://www.w3.org/2000/svg">
<path d="M105.535 139.674C157.707 88.5931 242.294 88.5931 294.466 139.674L300.745 145.821C303.354 148.375 303.354 152.516 300.745 155.07L279.266 176.1C277.962 177.377 275.847 177.377 274.543 176.1L265.902 167.64C229.506 132.005 170.495 132.005 134.099 167.64L124.845 176.7C123.541 177.977 121.426 177.977 120.122 176.7L98.6429 155.67C96.0343 153.116 96.0343 148.975 98.6429 146.421L105.535 139.674ZM338.887 183.166L358.003 201.882C360.612 204.437 360.612 208.577 358.003 211.131L271.806 295.527C269.197 298.081 264.968 298.081 262.359 295.527C262.359 295.527 262.359 295.527 262.359 295.527L201.182 235.629C200.529 234.991 199.472 234.991 198.82 235.629C198.82 235.629 198.82 235.629 198.82 235.629L137.644 295.527C135.035 298.081 130.806 298.081 128.197 295.527C128.197 295.527 128.197 295.527 128.197 295.527L41.997 211.13C39.3884 208.576 39.3884 204.435 41.997 201.881L61.1135 183.165C63.7221 180.611 67.9515 180.611 70.5601 183.165L131.739 243.064C132.391 243.702 133.448 243.702 134.1 243.064C134.1 243.064 134.1 243.064 134.1 243.064L195.276 183.165C197.884 180.611 202.114 180.611 204.723 183.165C204.723 183.165 204.723 183.165 204.723 183.165L265.901 243.064C266.553 243.702 267.611 243.702 268.263 243.064L329.44 183.166C332.049 180.612 336.278 180.612 338.887 183.166Z" fill="#3B99FC"/>
</svg>
