<svg width="18" height="15" viewBox="0 0 18 15" fill="none" xmlns="http://www.w3.org/2000/svg">
<path d="M15.1875 0.5C15.7579 0.5 16.2188 0.955809 16.2188 1.51786C16.2188 2.07991 15.7579 2.53571 15.1875 2.53571H3.32812C3.04324 2.53571 2.8125 2.76473 2.8125 3.04464C2.8125 3.32455 3.04324 3.55357 3.32812 3.55357H15.1875C16.3251 3.55357 17.25 4.46646 17.25 5.58929V12.7143C17.25 13.8371 16.3251 14.75 15.1875 14.75H2.8125C1.67329 14.75 0.75 13.8371 0.75 12.7143V2.53571C0.75 1.4113 1.67329 0.5 2.8125 0.5H15.1875ZM14.1562 10.1696C14.7267 10.1696 15.1875 9.71479 15.1875 9.15179C15.1875 8.58878 14.7267 8.13393 14.1562 8.13393C13.5858 8.13393 13.125 8.58878 13.125 9.15179C13.125 9.71479 13.5858 10.1696 14.1562 10.1696Z" fill="white"/>
</svg>
