<svg width="37" height="32" viewBox="0 0 37 32" fill="none" xmlns="http://www.w3.org/2000/svg">
<path d="M32.25 0.333374C33.5175 0.333374 34.5416 1.34628 34.5416 2.59528C34.5416 3.84427 33.5175 4.85718 32.25 4.85718H5.89579C5.26272 4.85718 4.74996 5.36611 4.74996 5.98814C4.74996 6.61016 5.26272 7.11909 5.89579 7.11909H32.25C34.778 7.11909 36.8333 9.14773 36.8333 11.6429V27.4762C36.8333 29.9714 34.778 32 32.25 32H4.74996C2.21838 32 0.166626 29.9714 0.166626 27.4762V4.85718C0.166626 2.35849 2.21838 0.333374 4.74996 0.333374H32.25ZM29.9583 21.8215C31.2259 21.8215 32.25 20.8107 32.25 19.5596C32.25 18.3084 31.2259 17.2977 29.9583 17.2977C28.6907 17.2977 27.6666 18.3084 27.6666 19.5596C27.6666 20.8107 28.6907 21.8215 29.9583 21.8215Z" fill="#A3A3A3"/>
</svg>
