<svg width="101" height="100" viewBox="0 0 101 100" fill="none" xmlns="http://www.w3.org/2000/svg">
<path fill-rule="evenodd" clip-rule="evenodd" d="M21.5 41.7515C21.5 57.6305 34.3725 70.503 50.2515 70.503C53.6017 70.503 56.8181 69.9299 59.8081 68.8765L69.2748 85.2734C70.4198 87.2566 72.9556 87.936 74.9387 86.7911C76.9218 85.6461 77.6013 83.1103 76.4563 81.1272L67.1529 65.0131C74.3347 59.786 79.0029 51.3139 79.0029 41.7515C79.0029 25.8725 66.1305 13 50.2515 13C34.3725 13 21.5 25.8725 21.5 41.7515ZM29.2188 41.5596C29.2188 53.0697 38.5496 62.4004 50.0596 62.4004C61.5697 62.4004 70.9004 53.0697 70.9004 41.5596C70.9004 30.0496 61.5697 20.7188 50.0596 20.7188C38.5496 20.7188 29.2188 30.0496 29.2188 41.5596Z" fill="#A3A3A3"/>
<path d="M43.3846 37.6993C43.3846 39.5546 41.8805 41.0587 40.0252 41.0587C38.1698 41.0587 36.6658 39.5546 36.6658 37.6993C36.6658 35.8439 38.1698 34.3398 40.0252 34.3398C41.8805 34.3398 43.3846 35.8439 43.3846 37.6993Z" fill="#A3A3A3" stroke="#A3A3A3"/>
<path d="M63.4534 37.6993C63.4534 39.5546 61.9494 41.0587 60.094 41.0587C58.2387 41.0587 56.7346 39.5546 56.7346 37.6993C56.7346 35.8439 58.2387 34.3398 60.094 34.3398C61.9494 34.3398 63.4534 35.8439 63.4534 37.6993Z" fill="#A3A3A3" stroke="#A3A3A3"/>
<path fill-rule="evenodd" clip-rule="evenodd" d="M41.5 49C41.5 47.8954 42.3954 47 43.5 47H56.5C57.6046 47 58.5 47.8954 58.5 49C58.5 50.1046 57.6046 51 56.5 51H43.5C42.3954 51 41.5 50.1046 41.5 49Z" fill="#A3A3A3"/>
</svg>