<svg id="Camada_1" data-name="Camada 1" xmlns="http://www.w3.org/2000/svg" xmlns:xlink="http://www.w3.org/1999/xlink" viewBox="0 0 81 28"><defs><style>.cls-1{fill:url(#Gradiente_sem_nome);}.cls-2{fill:url(#Gradiente_sem_nome_2);}.cls-3{fill:url(#Gradiente_sem_nome_3);}.cls-4{fill:url(#Gradiente_sem_nome_4);}.cls-5{fill:url(#Gradiente_sem_nome_5);}.cls-6{fill:url(#Gradiente_sem_nome_6);}.cls-7{fill:#1c1c28;}</style><linearGradient id="Gradiente_sem_nome" x1="3.09" y1="0.55" x2="2.88" y2="27.17" gradientTransform="matrix(1, 0, 0, -1, 0, 27.89)" gradientUnits="userSpaceOnUse"><stop offset="0" stop-color="#fe8464"/><stop offset="1" stop-color="#fe6e9a"/></linearGradient><linearGradient id="Gradiente_sem_nome_2" x1="6.35" y1="0.57" x2="6.14" y2="27.19" xlink:href="#Gradiente_sem_nome"/><linearGradient id="Gradiente_sem_nome_3" x1="11.33" y1="0.61" x2="11.12" y2="27.23" xlink:href="#Gradiente_sem_nome"/><linearGradient id="Gradiente_sem_nome_4" x1="19.49" y1="0.66" x2="19.7" y2="27.28" xlink:href="#Gradiente_sem_nome"/><linearGradient id="Gradiente_sem_nome_5" x1="16.24" y1="0.69" x2="16.45" y2="27.31" xlink:href="#Gradiente_sem_nome"/><linearGradient id="Gradiente_sem_nome_6" x1="11.36" y1="0.62" x2="11.15" y2="27.23" xlink:href="#Gradiente_sem_nome"/></defs><path class="cls-1" d="M0,20l5,2.83a13.1,13.1,0,0,1,1-3.8L1.63,15.72A33.65,33.65,0,0,0,0,20Z"/><path class="cls-2" d="M2.48,13.89l4.38,3.54A27.55,27.55,0,0,1,10,12.84L5.48,8.47A59.41,59.41,0,0,0,2.48,13.89Z"/><path class="cls-3" d="M11.3,17.78c.19.25.38.51.57.79a13.26,13.26,0,0,1,2,3.92q-1.39,1-2.34,1.68l-.19.12-.19-.12q-.94-.72-2.34-1.68a13.26,13.26,0,0,1,2-3.92C10.92,18.29,11.11,18,11.3,17.78Zm0-3.53h0c-.2.19-4.72,4.73-5.06,9.3a35.35,35.35,0,0,1,5.06,3.77h0a35.13,35.13,0,0,1,5.07-3.77C16,19,11.5,14.45,11.3,14.26Z"/><path class="cls-4" d="M22.58,20l-5,2.83a12.79,12.79,0,0,0-1-3.8L21,15.72A34.34,34.34,0,0,1,22.58,20Z"/><path class="cls-5" d="M20.11,13.89l-4.39,3.54a28.19,28.19,0,0,0-3.13-4.59L17.1,8.47A57.37,57.37,0,0,1,20.11,13.89Z"/><path class="cls-6" d="M15.74,6.52A61,61,0,0,0,11.23.7l0,0h0l0,0A61,61,0,0,0,6.66,6.52,3.6,3.6,0,0,0,7.07,7L11.2,11.4h0L15.33,7A4.58,4.58,0,0,0,15.74,6.52Z"/><path class="cls-7" d="M41,20H39.35l-6.46-8.74V20h-1.6V9h1.6l6.46,8.73V9H41ZM50.65,9v1.16H45.3v3.71h4.35v1.16H45.3V20H43.7V9Zm9.52,0v1.16H56.81V20h-1.6V10.18H51.83V9ZM69.1,9v1.16H63.75v3.71h4.34v1.16H63.75V20H62.14V9ZM79.65,9l-4,6.84V20H74V15.86L70,9H71.8l3,5.56,3-5.56Z"/></svg>