<svg width="66" height="14" viewBox="0 0 66 14" fill="none" xmlns="http://www.w3.org/2000/svg">
<path d="M16.2206 3.80833C16.7173 3.77285 17.214 3.77285 17.7226 3.80833L17.829 4.81362H17.9C18.0892 4.02122 18.858 3.69006 19.9342 3.69006C19.9815 4.09218 19.9815 4.75448 19.9342 5.1566C18.5978 5.1566 18.2312 5.42862 17.9118 6.28015V9.95832C17.4979 10.0175 16.6227 10.0175 16.2206 9.95832V3.80833V3.80833Z" fill="#D4D4D4"/>
<path d="M26.1788 7.40371C25.3864 7.46284 23.565 7.47467 22.5479 7.41554V7.71121C22.5479 8.55092 23.0328 8.70467 24.05 8.70467C24.7477 8.70467 25.2445 8.64553 25.9068 8.51544C25.9541 8.91755 25.9541 9.48524 25.9068 9.88736C25.0789 10.0293 24.4166 10.1002 23.636 10.1002C21.9329 10.1002 20.8567 9.59169 20.8567 8.08967V5.72429C20.8567 4.15131 21.9921 3.69006 23.565 3.69006C25.1262 3.69006 26.1788 4.35237 26.1788 6.04362V7.40371ZM24.523 5.97266C24.523 5.16843 24.0618 5.07381 23.5414 5.07381C23.021 5.07381 22.5479 5.16843 22.5479 5.97266V6.4339L23.4586 6.37477H24.523V5.97266V5.97266Z" fill="#D4D4D4"/>
<path d="M31.8084 8.51544C31.8084 9.66265 30.9096 10.1002 29.4431 10.1002C28.8162 10.1002 28.0948 10.0529 27.4207 9.93467C27.3615 9.5089 27.3615 9.024 27.4207 8.61005C28.0593 8.7165 28.698 8.75198 29.1947 8.75198C29.6678 8.75198 30.1172 8.7165 30.1172 8.31438V8.08967C30.1172 7.74669 29.8807 7.68756 29.4785 7.58111L28.4141 7.27361C27.74 7.08438 27.3734 6.65862 27.3734 5.87804V5.22756C27.3734 4.12766 28.3195 3.69006 29.8215 3.69006C30.4129 3.69006 31.0279 3.73737 31.7138 3.87929C31.773 4.30506 31.773 4.77814 31.7138 5.19208C30.9924 5.06198 30.5311 5.0265 30.0108 5.0265C29.5022 5.0265 29.0646 5.06198 29.0646 5.4641V5.68881C29.0646 5.98448 29.3366 6.09092 29.7033 6.19737L30.6967 6.46939C31.43 6.67044 31.8084 7.03708 31.8084 7.93592V8.51544V8.51544Z" fill="#D4D4D4"/>
<path d="M38.3842 7.40371C37.5918 7.46284 35.7704 7.47467 34.7533 7.41554V7.71121C34.7533 8.55092 35.2382 8.70467 36.2553 8.70467C36.9531 8.70467 37.4499 8.64553 38.1122 8.51544C38.1595 8.91755 38.1595 9.48524 38.1122 9.88736C37.2843 10.0293 36.622 10.1002 35.8414 10.1002C34.1383 10.1002 33.0621 9.59169 33.0621 8.08967V5.72429C33.0621 4.15131 34.1975 3.69006 35.7704 3.69006C37.3316 3.69006 38.3842 4.35237 38.3842 6.04362V7.40371ZM36.7284 5.97266C36.7284 5.16843 36.2672 5.07381 35.7468 5.07381C35.2264 5.07381 34.7533 5.16843 34.7533 5.97266V6.4339L35.664 6.37477H36.7284V5.97266Z" fill="#D4D4D4"/>
<path d="M39.8625 3.80833C40.3593 3.77285 40.856 3.77285 41.3646 3.80833L41.471 4.81362H41.542C41.7312 4.02122 42.5 3.69006 43.5762 3.69006C43.6235 4.09218 43.6235 4.75448 43.5762 5.1566C42.2398 5.1566 41.8731 5.42862 41.5538 6.28015V9.95832C41.1399 10.0175 40.2647 10.0175 39.8625 9.95832V3.80833V3.80833Z" fill="#D4D4D4"/>
<path d="M44.7115 3.85563C45.1255 3.7965 46.0007 3.7965 46.4028 3.85563L47.6919 8.40899L48.9692 3.85563C49.3713 3.7965 50.2111 3.7965 50.6132 3.85563L48.7327 9.95831C48.2123 10.0174 47.1242 10.0174 46.6039 9.95831L44.7115 3.85563Z" fill="#D4D4D4"/>
<path d="M57.1535 8.12515C57.1535 9.59169 56.0417 10.1002 54.386 10.1002C52.7302 10.1002 51.6185 9.59169 51.6185 8.12515V5.68881C51.6185 4.16314 52.7302 3.69006 54.386 3.69006C56.0417 3.69006 57.1535 4.16314 57.1535 5.68881V8.12515ZM55.4622 6.03179C55.4622 5.21573 54.9655 5.12112 54.386 5.12112C53.7946 5.12112 53.3097 5.21573 53.3097 6.03179V7.75852C53.3097 8.56275 53.7946 8.65736 54.386 8.65736C54.9655 8.65736 55.4622 8.56275 55.4622 7.75852V6.03179Z" fill="#D4D4D4"/>
<path d="M60.4532 2.89774C60.0393 2.95688 59.1049 2.95688 58.6792 2.89774L58.6555 1.54948C59.0813 1.49034 60.0629 1.49034 60.4887 1.54948L60.4532 2.89774ZM58.7265 3.85572C59.1286 3.79659 60.0038 3.79659 60.4177 3.85572V9.9584C60.0038 10.0175 59.1286 10.0175 58.7265 9.9584V3.85572Z" fill="#D4D4D4"/>
<path d="M62.1444 3.80833C62.6411 3.77285 63.1379 3.77285 63.6464 3.80833L63.7529 4.81362H63.8238C64.0131 4.02122 64.7818 3.69006 65.8581 3.69006C65.9054 4.09218 65.9054 4.75448 65.8581 5.1566C64.5216 5.1566 64.155 5.42862 63.8357 6.28015V9.95832C63.4217 10.0175 62.5465 10.0175 62.1444 9.95832V3.80833V3.80833Z" fill="#D4D4D4"/>
<path d="M11.0286 9.9879L5.51727 6.80055V0.431763L11.0286 3.61911V9.9879Z" fill="#80D8FF"/>
<path d="M0 9.9879L5.51725 6.80055V0.431763L0 3.61911V9.9879Z" fill="#7ACFFF"/>
<path d="M5.51725 9.98793L11.0286 6.80058L5.51725 3.61914L0 6.80058L5.51725 9.98793Z" fill="url(#paint0_linear_1880_58511)"/>
<path opacity="0.3" d="M5.51725 13.1694L0 9.98793V3.61914L5.51725 6.80058V13.1694Z" fill="#E4F0FE"/>
<path d="M0 9.98801L5.51725 13.1694V9.98801L0 6.80066V9.98801Z" fill="url(#paint1_linear_1880_58511)"/>
<path opacity="0.3" d="M5.51727 13.1694L11.0286 9.98793V3.61914L5.51727 6.80058V13.1694Z" fill="#D0E6FF"/>
<path d="M11.0286 9.98801L5.51727 13.1694V9.98801L11.0286 6.80066V9.98801Z" fill="url(#paint2_linear_1880_58511)"/>
<path opacity="0.3" d="M5.51725 6.80055L11.0286 3.61911L5.51725 0.431763L0 3.61911L5.51725 6.80055Z" fill="white"/>
<defs>
<linearGradient id="paint0_linear_1880_58511" x1="0.20635" y1="7.98965" x2="10.9712" y2="5.58346" gradientUnits="userSpaceOnUse">
<stop stop-color="#C132CE"/>
<stop offset="1" stop-color="#425AFA"/>
</linearGradient>
<linearGradient id="paint1_linear_1880_58511" x1="2.12063" y1="7.86801" x2="3.7084" y2="13.1499" gradientUnits="userSpaceOnUse">
<stop stop-color="#425AFA"/>
<stop offset="0.16" stop-color="#5A52F2"/>
<stop offset="0.55" stop-color="#9241DE"/>
<stop offset="0.84" stop-color="#B436D3"/>
<stop offset="1" stop-color="#C132CE"/>
</linearGradient>
<linearGradient id="paint2_linear_1880_58511" x1="6.49199" y1="12.1726" x2="10.0093" y2="7.85695" gradientUnits="userSpaceOnUse">
<stop stop-color="#C132CE"/>
<stop offset="0.1" stop-color="#AB39D6"/>
<stop offset="0.28" stop-color="#8545E3"/>
<stop offset="0.47" stop-color="#684EED"/>
<stop offset="0.65" stop-color="#5355F4"/>
<stop offset="0.83" stop-color="#4659F9"/>
<stop offset="1" stop-color="#425AFA"/>
</linearGradient>
</defs>
</svg>
