<svg width="66" height="14" viewBox="0 0 66 14" fill="none" xmlns="http://www.w3.org/2000/svg">
<path d="M16.276 4.22374C16.7727 4.18826 17.2695 4.18826 17.778 4.22374L17.8845 5.22902H17.9554C18.1447 4.43662 18.9134 4.10547 19.9896 4.10547C20.037 4.50758 20.037 5.16989 19.9896 5.572C18.6532 5.572 18.2866 5.84402 17.9672 6.69556V10.3737C17.5533 10.4329 16.6781 10.4329 16.276 10.3737V4.22374V4.22374Z" fill="#525252"/>
<path d="M26.2342 7.81912C25.4418 7.87825 23.6205 7.89008 22.6034 7.83094V8.12661C22.6034 8.96632 23.0883 9.12007 24.1054 9.12007C24.8032 9.12007 25.2999 9.06094 25.9622 8.93084C26.0095 9.33296 26.0095 9.90065 25.9622 10.3028C25.1343 10.4447 24.472 10.5156 23.6914 10.5156C21.9884 10.5156 20.9121 10.0071 20.9121 8.50508V6.1397C20.9121 4.56672 22.0475 4.10547 23.6205 4.10547C25.1816 4.10547 26.2342 4.76777 26.2342 6.45902V7.81912ZM24.5784 6.38806C24.5784 5.58383 24.1172 5.48922 23.5968 5.48922C23.0764 5.48922 22.6034 5.58383 22.6034 6.38806V6.84931L23.514 6.79018H24.5784V6.38806V6.38806Z" fill="#525252"/>
<path d="M31.8639 8.93084C31.8639 10.0781 30.965 10.5156 29.4985 10.5156C28.8717 10.5156 28.1502 10.4683 27.4761 10.3501C27.4169 9.9243 27.4169 9.4394 27.4761 9.02546C28.1147 9.1319 28.7534 9.16738 29.2501 9.16738C29.7232 9.16738 30.1726 9.1319 30.1726 8.72979V8.50508C30.1726 8.1621 29.9361 8.10296 29.534 7.99652L28.4695 7.68902C27.7954 7.49979 27.4288 7.07402 27.4288 6.29345V5.64297C27.4288 4.54306 28.3749 4.10547 29.8769 4.10547C30.4683 4.10547 31.0833 4.15278 31.7692 4.2947C31.8284 4.72047 31.8284 5.19354 31.7692 5.60749C31.0478 5.47739 30.5866 5.44191 30.0662 5.44191C29.5576 5.44191 29.12 5.47739 29.12 5.8795V6.10421C29.12 6.39989 29.392 6.50633 29.7587 6.61277L30.7521 6.88479C31.4854 7.08585 31.8639 7.45248 31.8639 8.35133V8.93084V8.93084Z" fill="#525252"/>
<path d="M38.4396 7.81912C37.6472 7.87825 35.8259 7.89008 34.8087 7.83094V8.12661C34.8087 8.96632 35.2936 9.12007 36.3108 9.12007C37.0085 9.12007 37.5053 9.06094 38.1676 8.93084C38.2149 9.33296 38.2149 9.90065 38.1676 10.3028C37.3397 10.4447 36.6774 10.5156 35.8968 10.5156C34.1937 10.5156 33.1175 10.0071 33.1175 8.50508V6.1397C33.1175 4.56672 34.2529 4.10547 35.8259 4.10547C37.387 4.10547 38.4396 4.76777 38.4396 6.45902V7.81912ZM36.7838 6.38806C36.7838 5.58383 36.3226 5.48922 35.8022 5.48922C35.2818 5.48922 34.8087 5.58383 34.8087 6.38806V6.84931L35.7194 6.79018H36.7838V6.38806Z" fill="#525252"/>
<path d="M39.918 4.22374C40.4147 4.18826 40.9114 4.18826 41.42 4.22374L41.5264 5.22902H41.5974C41.7866 4.43662 42.5554 4.10547 43.6316 4.10547C43.6789 4.50758 43.6789 5.16989 43.6316 5.572C42.2952 5.572 41.9285 5.84402 41.6092 6.69556V10.3737C41.1953 10.4329 40.3201 10.4329 39.918 10.3737V4.22374V4.22374Z" fill="#525252"/>
<path d="M44.767 4.27104C45.1809 4.2119 46.0561 4.2119 46.4582 4.27104L47.7473 8.82439L49.0247 4.27104C49.4268 4.2119 50.2665 4.2119 50.6686 4.27104L48.7881 10.3737C48.2677 10.4329 47.1797 10.4329 46.6593 10.3737L44.767 4.27104Z" fill="#525252"/>
<path d="M57.2089 8.54056C57.2089 10.0071 56.0972 10.5156 54.4414 10.5156C52.7856 10.5156 51.6739 10.0071 51.6739 8.54056V6.10421C51.6739 4.57854 52.7856 4.10547 54.4414 4.10547C56.0972 4.10547 57.2089 4.57854 57.2089 6.10421V8.54056ZM55.5176 6.4472C55.5176 5.63114 55.0209 5.53652 54.4414 5.53652C53.85 5.53652 53.3651 5.63114 53.3651 6.4472V8.17392C53.3651 8.97815 53.85 9.07277 54.4414 9.07277C55.0209 9.07277 55.5176 8.97815 55.5176 8.17392V6.4472Z" fill="#525252"/>
<path d="M60.5086 3.31315C60.0947 3.37228 59.1604 3.37228 58.7346 3.31315L58.7109 1.96488C59.1367 1.90575 60.1183 1.90575 60.5441 1.96488L60.5086 3.31315ZM58.7819 4.27113C59.184 4.21199 60.0592 4.21199 60.4731 4.27113V10.3738C60.0592 10.4329 59.184 10.4329 58.7819 10.3738V4.27113Z" fill="#525252"/>
<path d="M62.1998 4.22374C62.6966 4.18826 63.1933 4.18826 63.7018 4.22374L63.8083 5.22902H63.8793C64.0685 4.43662 64.8372 4.10547 65.9135 4.10547C65.9608 4.50758 65.9608 5.16989 65.9135 5.572C64.577 5.572 64.2104 5.84402 63.8911 6.69556V10.3737C63.4771 10.4329 62.6019 10.4329 62.1998 10.3737V4.22374V4.22374Z" fill="#525252"/>
<path d="M11.084 10.4033L5.57269 7.21595V0.847168L11.084 4.03452V10.4033Z" fill="#80D8FF"/>
<path d="M0.0554199 10.4033L5.57267 7.21595V0.847168L0.0554199 4.03452V10.4033Z" fill="#7ACFFF"/>
<path d="M5.57267 10.4033L11.084 7.21598L5.57267 4.03455L0.0554199 7.21598L5.57267 10.4033Z" fill="url(#paint0_linear_1877_58393)"/>
<path opacity="0.3" d="M5.57267 13.5848L0.0554199 10.4033V4.03455L5.57267 7.21598V13.5848Z" fill="#E4F0FE"/>
<path d="M0.0554199 10.4034L5.57267 13.5849V10.4034L0.0554199 7.21606V10.4034Z" fill="url(#paint1_linear_1877_58393)"/>
<path opacity="0.3" d="M5.57269 13.5848L11.084 10.4033V4.03455L5.57269 7.21598V13.5848Z" fill="#D0E6FF"/>
<path d="M11.084 10.4034L5.57269 13.5849V10.4034L11.084 7.21606V10.4034Z" fill="url(#paint2_linear_1877_58393)"/>
<path opacity="0.3" d="M5.57267 7.21595L11.084 4.03452L5.57267 0.847168L0.0554199 4.03452L5.57267 7.21595Z" fill="white"/>
<defs>
<linearGradient id="paint0_linear_1877_58393" x1="0.26177" y1="8.40505" x2="11.0266" y2="5.99887" gradientUnits="userSpaceOnUse">
<stop stop-color="#C132CE"/>
<stop offset="1" stop-color="#425AFA"/>
</linearGradient>
<linearGradient id="paint1_linear_1877_58393" x1="2.17605" y1="8.28342" x2="3.76382" y2="13.5653" gradientUnits="userSpaceOnUse">
<stop stop-color="#425AFA"/>
<stop offset="0.16" stop-color="#5A52F2"/>
<stop offset="0.55" stop-color="#9241DE"/>
<stop offset="0.84" stop-color="#B436D3"/>
<stop offset="1" stop-color="#C132CE"/>
</linearGradient>
<linearGradient id="paint2_linear_1877_58393" x1="6.54741" y1="12.588" x2="10.0647" y2="8.27235" gradientUnits="userSpaceOnUse">
<stop stop-color="#C132CE"/>
<stop offset="0.1" stop-color="#AB39D6"/>
<stop offset="0.28" stop-color="#8545E3"/>
<stop offset="0.47" stop-color="#684EED"/>
<stop offset="0.65" stop-color="#5355F4"/>
<stop offset="0.83" stop-color="#4659F9"/>
<stop offset="1" stop-color="#425AFA"/>
</linearGradient>
</defs>
</svg>
