<svg width="236" height="36" viewBox="0 0 236 36" fill="none" xmlns="http://www.w3.org/2000/svg">
<path d="M31.1698 27.0082L15.5933 17.9999V0L31.1698 9.0083V27.0082Z" fill="#80D8FF"/>
<path d="M0 27.0082L15.5932 17.9999V0L0 9.0083V27.0082Z" fill="#7ACFFF"/>
<path d="M15.5932 27.0082L31.1697 17.9999L15.5932 9.0083L0 17.9999L15.5932 27.0082Z" fill="url(#paint0_linear_1506_5792)"/>
<path opacity="0.3" d="M15.5932 35.9998L0 27.0082V9.0083L15.5932 17.9999V35.9998Z" fill="#E4F0FE"/>
<path d="M0 27.0078L15.5932 35.9994V27.0078L0 17.9995V27.0078Z" fill="url(#paint1_linear_1506_5792)"/>
<path opacity="0.3" d="M15.5933 36.0003L31.1698 27.0087V9.00879L15.5933 18.0004V36.0003Z" fill="#D0E6FF"/>
<path d="M31.1698 27.0083L15.5933 35.9999V27.0083L31.1698 18V27.0083Z" fill="url(#paint2_linear_1506_5792)"/>
<path opacity="0.3" d="M15.5932 17.9999L31.1697 9.0083L15.5932 0L0 9.0083L15.5932 17.9999Z" fill="white"/>
<path d="M43.9743 24C44.9583 24.12 47.1423 24.12 48.1263 24V16.992C48.7743 15.264 49.5183 14.712 52.2783 14.712C52.3743 13.752 52.3743 12.144 52.2783 11.16C50.0223 11.16 48.4863 11.856 48.1023 13.512H47.9343L47.6943 11.4C46.4463 11.328 45.2223 11.328 43.9743 11.4V24ZM65.2342 16.032C65.2342 12.336 62.6182 11.16 59.6662 11.16C56.3062 11.16 53.9062 12.12 53.9062 15.456V20.04C53.9062 23.232 56.2342 24.288 59.8582 24.288C61.5382 24.288 62.9062 24.144 64.6582 23.832C64.7782 22.872 64.7782 21.624 64.6582 20.64C63.3142 20.88 62.2822 21.024 60.9382 21.024C58.8262 21.024 58.0582 20.688 58.0582 19.2V18.936C60.0502 19.056 63.6982 19.056 65.2342 18.912V16.032ZM61.2022 16.608H59.4742L58.0582 16.728V15.96C58.0582 14.592 58.8262 14.424 59.6182 14.424C60.4342 14.424 61.2022 14.592 61.2022 15.984V16.608ZM76.8097 19.752C76.8097 17.832 76.0897 17.088 74.6257 16.68L72.8257 16.176C72.1057 15.96 71.5777 15.792 71.5777 15.312V14.904C71.5777 14.304 72.2737 14.256 73.0657 14.256C74.0977 14.256 75.1057 14.352 76.6177 14.616C76.7377 13.656 76.7377 12.552 76.6177 11.568C75.2017 11.28 73.8337 11.16 72.5617 11.16C69.4177 11.16 67.4257 12.048 67.4257 14.304V15.792C67.4257 17.424 68.1697 18.336 69.4417 18.696L71.4577 19.272C72.2257 19.512 72.6577 19.56 72.6577 20.112V20.568C72.6577 21.144 71.9377 21.192 71.1217 21.192C70.1857 21.192 68.8657 21.12 67.5217 20.904C67.4017 21.864 67.4017 22.992 67.5217 23.976C68.9617 24.192 70.4737 24.288 71.7937 24.288C74.9377 24.288 76.8097 23.376 76.8097 21.048V19.752ZM90.4061 16.032C90.4061 12.336 87.7901 11.16 84.8381 11.16C81.4781 11.16 79.0781 12.12 79.0781 15.456V20.04C79.0781 23.232 81.4061 24.288 85.0301 24.288C86.7101 24.288 88.0781 24.144 89.8301 23.832C89.9501 22.872 89.9501 21.624 89.8301 20.64C88.4861 20.88 87.4541 21.024 86.1101 21.024C83.9981 21.024 83.2301 20.688 83.2301 19.2V18.936C85.2221 19.056 88.8701 19.056 90.4061 18.912V16.032ZM86.3741 16.608H84.6461L83.2301 16.728V15.96C83.2301 14.592 83.9981 14.424 84.7901 14.424C85.6061 14.424 86.3741 14.592 86.3741 15.984V16.608ZM93.0056 24C93.9896 24.12 96.1736 24.12 97.1576 24V16.992C97.8056 15.264 98.5496 14.712 101.31 14.712C101.406 13.752 101.406 12.144 101.31 11.16C99.0536 11.16 97.5176 11.856 97.1336 13.512H96.9656L96.7256 11.4C95.4776 11.328 94.2536 11.328 93.0056 11.4V24ZM105.553 24C106.849 24.12 109.633 24.12 110.929 24L114.529 11.52C113.569 11.4 111.457 11.4 110.497 11.52L108.289 20.088L106.057 11.52C105.097 11.4 102.913 11.4 101.929 11.52L105.553 24ZM127.682 15.408C127.682 12.12 125.33 11.16 121.802 11.16C118.25 11.16 115.898 12.12 115.898 15.408V20.136C115.898 23.232 118.25 24.288 121.802 24.288C125.33 24.288 127.682 23.232 127.682 20.136V15.408ZM123.53 19.248C123.53 20.664 122.738 20.832 121.802 20.832C120.842 20.832 120.05 20.664 120.05 19.248V16.224C120.05 14.784 120.842 14.592 121.802 14.592C122.738 14.592 123.53 14.784 123.53 16.224V19.248ZM130.412 24C131.396 24.12 133.58 24.12 134.564 24V11.52C133.58 11.4 131.396 11.4 130.412 11.52V24ZM134.708 6.792C133.7 6.672 131.252 6.672 130.268 6.792L130.34 9.912C131.324 10.032 133.652 10.032 134.636 9.912L134.708 6.792ZM137.537 24C138.521 24.12 140.705 24.12 141.689 24V16.992C142.337 15.264 143.081 14.712 145.841 14.712C145.937 13.752 145.937 12.144 145.841 11.16C143.585 11.16 142.049 11.856 141.665 13.512H141.497L141.257 11.4C140.009 11.328 138.785 11.328 137.537 11.4V24ZM146.337 24C147.321 24.12 149.433 24.12 150.417 24V19.656C149.433 19.536 147.321 19.536 146.337 19.656V24ZM168.201 24C169.185 24.12 171.369 24.12 172.353 24V14.736C172.353 12.072 170.649 11.16 168.393 11.16C166.545 11.16 165.081 11.688 164.649 13.224H164.433C163.905 11.712 162.465 11.16 160.713 11.16C158.865 11.16 157.401 11.688 156.993 13.224H156.825L156.585 11.4C155.625 11.304 153.825 11.304 152.865 11.4V24C153.849 24.12 156.033 24.12 157.017 24V16.2C157.329 14.952 157.833 14.664 158.937 14.664C159.849 14.664 160.521 14.928 160.521 16.752V24C161.481 24.12 163.689 24.12 164.673 24V16.2C165.009 14.952 165.513 14.664 166.593 14.664C167.553 14.664 168.201 14.928 168.201 16.752V24ZM182.571 24.12C183.531 24.24 185.331 24.24 186.315 24.12V15.384C186.315 12.168 184.275 11.16 180.363 11.16C178.803 11.16 177.339 11.256 175.539 11.592C175.419 12.576 175.419 13.776 175.539 14.76C176.979 14.52 178.155 14.424 179.067 14.424C181.443 14.424 182.163 15.072 182.163 16.2V16.752C181.059 16.608 180.195 16.536 178.971 16.536C176.355 16.536 174.507 17.256 174.507 20.688C174.507 23.28 176.235 24.288 178.491 24.288C180.363 24.288 181.827 23.712 182.187 22.248H182.355L182.571 24.12ZM182.163 20.256C181.755 21.024 181.083 21.312 180.123 21.312C179.307 21.312 178.659 21.192 178.659 20.136C178.659 19.032 179.307 18.888 180.435 18.888C180.867 18.888 181.539 18.96 182.163 19.104V20.256ZM189.076 24C190.06 24.12 192.244 24.12 193.228 24V16.992C193.876 15.264 194.62 14.712 197.38 14.712C197.476 13.752 197.476 12.144 197.38 11.16C195.124 11.16 193.588 11.856 193.204 13.512H193.036L192.796 11.4C191.548 11.328 190.324 11.328 189.076 11.4V24ZM207.288 24C208.248 24.12 210.864 24.12 211.8 24L207.768 16.896L211.656 11.304C210.72 11.184 208.152 11.184 207.216 11.304L204.456 15.24L203.4 15.408V6.816C202.416 6.696 200.232 6.696 199.248 6.816V24C200.232 24.12 202.416 24.12 203.4 24V18.936L204.312 18.792L207.288 24ZM224.469 16.032C224.469 12.336 221.853 11.16 218.901 11.16C215.541 11.16 213.141 12.12 213.141 15.456V20.04C213.141 23.232 215.469 24.288 219.093 24.288C220.773 24.288 222.141 24.144 223.893 23.832C224.013 22.872 224.013 21.624 223.893 20.64C222.549 20.88 221.517 21.024 220.173 21.024C218.061 21.024 217.293 20.688 217.293 19.2V18.936C219.285 19.056 222.933 19.056 224.469 18.912V16.032ZM220.437 16.608H218.709L217.293 16.728V15.96C217.293 14.592 218.061 14.424 218.853 14.424C219.669 14.424 220.437 14.592 220.437 15.984V16.608ZM234.844 14.616C234.964 13.656 234.964 12.432 234.844 11.448H231.916V8.424C230.932 8.304 228.748 8.304 227.764 8.424V11.52L226.132 11.64C226.012 12.6 226.012 13.656 226.132 14.616H227.764V20.112C227.764 23.328 229.924 24.288 232.348 24.288C233.26 24.288 234.028 24.216 234.844 24.048C234.964 23.088 234.964 21.648 234.844 20.688C234.436 20.76 233.932 20.808 233.524 20.808C232.684 20.808 231.916 20.688 231.916 18.648V14.616H234.844Z" fill="#262626"/>
<defs>
<linearGradient id="paint0_linear_1506_5792" x1="0.583199" y1="21.3605" x2="31.0075" y2="14.56" gradientUnits="userSpaceOnUse">
<stop stop-color="#C132CE"/>
<stop offset="1" stop-color="#425AFA"/>
</linearGradient>
<linearGradient id="paint1_linear_1506_5792" x1="5.99348" y1="21.0161" x2="10.4809" y2="35.9442" gradientUnits="userSpaceOnUse">
<stop stop-color="#425AFA"/>
<stop offset="0.16" stop-color="#5A52F2"/>
<stop offset="0.55" stop-color="#9241DE"/>
<stop offset="0.84" stop-color="#B436D3"/>
<stop offset="1" stop-color="#C132CE"/>
</linearGradient>
<linearGradient id="paint2_linear_1506_5792" x1="18.3481" y1="33.1825" x2="28.289" y2="20.9854" gradientUnits="userSpaceOnUse">
<stop stop-color="#C132CE"/>
<stop offset="0.1" stop-color="#AB39D6"/>
<stop offset="0.28" stop-color="#8545E3"/>
<stop offset="0.47" stop-color="#684EED"/>
<stop offset="0.65" stop-color="#5355F4"/>
<stop offset="0.83" stop-color="#4659F9"/>
<stop offset="1" stop-color="#425AFA"/>
</linearGradient>
</defs>
</svg>
