<svg xmlns="http://www.w3.org/2000/svg" xmlns:xlink="http://www.w3.org/1999/xlink" viewBox="0 0 745.2 860.48"><defs><style>.cls-1{fill:#80d8ff;}.cls-2{fill:#7acfff;}.cls-3{fill:url(#linear-gradient);}.cls-4{fill:#e4f0fe;}.cls-4,.cls-6,.cls-8{opacity:0.3;}.cls-5{fill:url(#linear-gradient-2);}.cls-6{fill:#d0e6ff;}.cls-7{fill:url(#linear-gradient-3);}.cls-8{fill:#fff;}</style><linearGradient id="linear-gradient" x1="13.95" y1="510.41" x2="741.2" y2="347.85" gradientUnits="userSpaceOnUse"><stop offset="0" stop-color="#c132ce"/><stop offset="1" stop-color="#425afa"/></linearGradient><linearGradient id="linear-gradient-2" x1="143.26" y1="502.2" x2="250.53" y2="859.03" gradientUnits="userSpaceOnUse"><stop offset="0" stop-color="#425afa"/><stop offset="0.16" stop-color="#5a52f2"/><stop offset="0.55" stop-color="#9241de"/><stop offset="0.84" stop-color="#b436d3"/><stop offset="1" stop-color="#c132ce"/></linearGradient><linearGradient id="linear-gradient-3" x1="438.57" y1="792.99" x2="676.22" y2="501.42" gradientUnits="userSpaceOnUse"><stop offset="0" stop-color="#c132ce"/><stop offset="0.1" stop-color="#ab39d6"/><stop offset="0.28" stop-color="#8545e3"/><stop offset="0.47" stop-color="#684eed"/><stop offset="0.65" stop-color="#5355f4"/><stop offset="0.83" stop-color="#4659f9"/><stop offset="1" stop-color="#425afa"/></linearGradient></defs><title>reservoir</title><g id="Layer_2" data-name="Layer 2"><g id="Layer_1-2" data-name="Layer 1"><polygon class="cls-1" points="745.2 645.36 372.6 430.24 372.6 0 745.2 215.12 745.2 645.36"/><polygon class="cls-2" points="0 645.36 372.6 430.24 372.6 0 0 215.12 0 645.36"/><polygon class="cls-3" points="372.6 645.36 745.2 430.24 372.6 215.12 0 430.24 372.6 645.36"/><polygon class="cls-4" points="372.6 860.48 0 645.36 0 215.12 372.6 430.24 372.6 860.48"/><polygon class="cls-5" points="0 645.36 372.6 860.48 372.6 860.48 372.6 645.36 0 430.24 0 645.36"/><polygon class="cls-6" points="372.6 860.48 745.2 645.36 745.2 215.12 372.6 430.24 372.6 860.48"/><polygon class="cls-7" points="745.2 645.36 372.6 860.48 372.6 860.48 372.6 645.36 745.2 430.24 745.2 645.36"/><polygon class="cls-8" points="372.6 430.24 745.2 215.12 372.6 0 0 215.12 372.6 430.24"/></g></g></svg>