<svg width="293" height="85" viewBox="0 0 293 85" fill="none" xmlns="http://www.w3.org/2000/svg">
<rect x="13.5907" y="11.5907" width="61.8185" height="61.8185" rx="3.68326" fill="black" stroke="#525252" stroke-width="0.818503"/>
<mask id="mask0_4331_83929" style="mask-type:alpha" maskUnits="userSpaceOnUse" x="14" y="12" width="61" height="61">
<rect x="14.3905" y="12.3905" width="60.2189" height="60.2189" rx="2.88347" fill="white" stroke="#D4D4D4" stroke-width="0.781086"/>
</mask>
<g mask="url(#mask0_4331_83929)">
<circle cx="60.5256" cy="27.5084" r="4.77895" fill="#262626" stroke="#525252" stroke-width="0.781086"/>
<path d="M78.7238 71.369C73.614 63.6757 66.5001 53.9834 59.2955 46.2661C55.6925 42.4068 52.077 39.0524 48.6866 36.6889C45.2845 34.3172 42.1648 32.9832 39.5412 33.0726C36.8918 33.1629 34.1417 34.6413 31.3897 37.1188C28.6437 39.5911 25.9386 43.0201 23.3837 46.9242C18.2748 54.7308 13.8049 64.377 10.8342 71.896C10.1068 73.7373 11.4803 75.711 13.4793 75.711H76.3419C78.6111 75.711 79.9663 73.2397 78.7238 71.369Z" fill="#262626" stroke="#525252" stroke-width="0.781086"/>
</g>
<path d="M93 32C87.478 32 83 36.478 83 42C83 47.522 87.478 52 93 52C98.522 52 103 47.522 103 42C103 36.478 98.524 32 93 32ZM87.934 42.336L87.976 42.268L90.578 38.198C90.616 38.14 90.706 38.146 90.734 38.21C91.168 39.184 91.544 40.396 91.368 41.15C91.294 41.46 91.088 41.88 90.856 42.268C90.826 42.324 90.794 42.38 90.758 42.434C90.742 42.458 90.714 42.472 90.684 42.472H88.01C87.938 42.472 87.896 42.394 87.934 42.336ZM99.528 43.736C99.528 43.774 99.506 43.806 99.474 43.82C99.272 43.906 98.582 44.224 98.296 44.622C97.564 45.64 97.006 47.096 95.756 47.096H90.544C88.696 47.096 87.2 45.594 87.2 43.74V43.68C87.2 43.632 87.24 43.592 87.29 43.592H90.194C90.252 43.592 90.294 43.644 90.29 43.702C90.268 43.89 90.304 44.084 90.394 44.26C90.566 44.61 90.924 44.828 91.31 44.828H92.748V43.706H91.326C91.254 43.706 91.21 43.622 91.252 43.562C91.268 43.538 91.284 43.514 91.304 43.486C91.438 43.294 91.63 42.998 91.822 42.66C91.952 42.432 92.078 42.188 92.18 41.944C92.2 41.9 92.216 41.854 92.234 41.81C92.262 41.732 92.29 41.658 92.31 41.586C92.33 41.524 92.348 41.46 92.364 41.4C92.412 41.192 92.432 40.972 92.432 40.744C92.432 40.654 92.428 40.56 92.42 40.472C92.416 40.374 92.404 40.276 92.392 40.178C92.384 40.092 92.368 40.006 92.352 39.918C92.33 39.788 92.302 39.658 92.27 39.528L92.258 39.478C92.234 39.388 92.212 39.304 92.184 39.214C92.102 38.934 92.01 38.66 91.91 38.404C91.874 38.302 91.834 38.204 91.792 38.108C91.732 37.96 91.67 37.826 91.614 37.7C91.584 37.642 91.56 37.59 91.536 37.536C91.508 37.476 91.48 37.416 91.45 37.358C91.43 37.314 91.406 37.272 91.39 37.232L91.214 36.908C91.19 36.864 91.23 36.81 91.278 36.824L92.378 37.122H92.382C92.384 37.122 92.384 37.122 92.386 37.122L92.53 37.164L92.69 37.208L92.748 37.224V36.572C92.748 36.256 93 36 93.314 36C93.47 36 93.612 36.064 93.712 36.168C93.814 36.272 93.878 36.414 93.878 36.572V37.542L93.996 37.574C94.004 37.578 94.014 37.582 94.022 37.588C94.05 37.608 94.092 37.64 94.144 37.68C94.186 37.712 94.23 37.752 94.282 37.794C94.388 37.88 94.516 37.99 94.654 38.116C94.69 38.148 94.726 38.18 94.76 38.214C94.938 38.38 95.138 38.574 95.33 38.79C95.384 38.852 95.436 38.912 95.49 38.978C95.542 39.044 95.6 39.108 95.648 39.172C95.714 39.258 95.782 39.348 95.844 39.442C95.872 39.486 95.906 39.532 95.932 39.576C96.012 39.694 96.08 39.816 96.146 39.938C96.174 39.994 96.202 40.056 96.226 40.116C96.3 40.28 96.358 40.446 96.394 40.614C96.406 40.65 96.414 40.688 96.418 40.724V40.732C96.43 40.78 96.434 40.832 96.438 40.886C96.454 41.056 96.446 41.228 96.41 41.4C96.394 41.472 96.374 41.54 96.35 41.614C96.324 41.684 96.3 41.756 96.268 41.826C96.206 41.968 96.134 42.112 96.048 42.244C96.02 42.294 95.986 42.346 95.954 42.396C95.918 42.448 95.88 42.498 95.848 42.546C95.802 42.608 95.754 42.672 95.704 42.73C95.66 42.79 95.616 42.85 95.566 42.904C95.498 42.986 95.432 43.062 95.362 43.136C95.322 43.184 95.278 43.234 95.232 43.278C95.188 43.328 95.142 43.372 95.102 43.412C95.032 43.482 94.976 43.534 94.928 43.58L94.814 43.682C94.798 43.698 94.776 43.706 94.754 43.706H93.878V44.828H94.98C95.226 44.828 95.46 44.742 95.65 44.58C95.714 44.524 95.996 44.28 96.33 43.912C96.342 43.898 96.356 43.89 96.372 43.886L99.414 43.006C99.472 42.99 99.528 43.032 99.528 43.092V43.736Z" fill="#525252"/>
<path d="M117.053 49.6823C116.037 49.6823 115.137 49.5087 114.351 49.1615C113.57 48.8099 112.953 48.326 112.502 47.7096C112.051 47.0933 111.821 46.3837 111.812 45.5807H115.054C115.067 45.8715 115.16 46.1298 115.334 46.3555C115.508 46.5768 115.744 46.7504 116.044 46.8763C116.343 47.0022 116.684 47.0651 117.066 47.0651C117.448 47.0651 117.784 46.9978 118.075 46.8633C118.37 46.7244 118.6 46.5356 118.765 46.2969C118.93 46.0538 119.01 45.776 119.006 45.4635C119.01 45.151 118.921 44.8733 118.739 44.6302C118.557 44.3872 118.298 44.1984 117.964 44.0638C117.634 43.9293 117.244 43.862 116.792 43.862H115.497V41.5703H116.792C117.187 41.5703 117.535 41.5052 117.834 41.375C118.138 41.2448 118.374 41.0625 118.544 40.8281C118.713 40.5894 118.795 40.316 118.791 40.0078C118.795 39.7083 118.724 39.4457 118.576 39.2201C118.433 38.99 118.231 38.8121 117.971 38.6862C117.715 38.5603 117.417 38.4974 117.079 38.4974C116.723 38.4974 116.4 38.5603 116.109 38.6862C115.822 38.8121 115.594 38.99 115.425 39.2201C115.256 39.4501 115.167 39.717 115.158 40.0208H112.079C112.087 39.2266 112.309 38.5278 112.743 37.9245C113.177 37.3168 113.767 36.8416 114.514 36.4987C115.265 36.1558 116.12 35.9844 117.079 35.9844C118.034 35.9844 118.873 36.1515 119.598 36.4857C120.323 36.8199 120.887 37.2756 121.291 37.8529C121.695 38.4258 121.896 39.0747 121.896 39.7995C121.901 40.5503 121.656 41.1688 121.161 41.6549C120.67 42.1411 120.039 42.4405 119.266 42.5534V42.6576C120.299 42.7791 121.078 43.1133 121.604 43.6602C122.133 44.207 122.396 44.8906 122.391 45.7109C122.391 46.4835 122.163 47.1693 121.708 47.7682C121.256 48.3628 120.627 48.8316 119.82 49.1745C119.017 49.513 118.094 49.6823 117.053 49.6823ZM129.313 49.6823C128.341 49.6823 127.478 49.5065 126.722 49.1549C125.967 48.8034 125.37 48.3194 124.932 47.7031C124.498 47.0868 124.272 46.3793 124.255 45.5807H127.38C127.406 46.0712 127.606 46.4661 127.979 46.7656C128.352 47.0608 128.797 47.2083 129.313 47.2083C129.717 47.2083 130.075 47.1194 130.388 46.9414C130.7 46.7635 130.945 46.5139 131.123 46.1927C131.301 45.8672 131.388 45.4939 131.384 45.0729C131.388 44.6432 131.299 44.2678 131.117 43.9466C130.939 43.6254 130.692 43.3759 130.375 43.1979C130.062 43.0156 129.702 42.9245 129.294 42.9245C128.908 42.9201 128.541 43.0048 128.194 43.1784C127.851 43.352 127.59 43.5885 127.412 43.888L124.567 43.3542L125.147 36.1667H133.701V38.7643H127.797L127.491 41.9089H127.569C127.79 41.5399 128.146 41.2361 128.636 40.9974C129.131 40.7543 129.693 40.6328 130.323 40.6328C131.121 40.6328 131.833 40.8194 132.458 41.1927C133.087 41.5616 133.582 42.0738 133.942 42.7292C134.307 43.3845 134.489 44.1354 134.489 44.9818C134.489 45.8976 134.272 46.7092 133.838 47.4167C133.409 48.1241 132.805 48.6797 132.028 49.0833C131.256 49.4826 130.351 49.6823 129.313 49.6823Z" fill="#525252"/>
<path d="M228.175 37.4375H224.208L225.673 32.6207C225.81 32.0566 225.415 31.5 224.875 31.5H219.925C219.513 31.5 219.162 31.8303 219.107 32.2719L218.007 41.1781C217.942 41.7125 218.327 42.1875 218.825 42.1875H222.906L221.321 49.4053C221.197 49.9693 221.596 50.5 222.122 50.5C222.411 50.5 222.686 50.3367 222.837 50.0547L228.887 38.7734C229.206 38.1834 228.811 37.4375 228.175 37.4375Z" fill="#525252"/>
<path d="M244.17 38.8523C244.133 38.4356 243.964 38.1117 243.665 37.8807C243.369 37.6458 242.947 37.5284 242.398 37.5284C242.034 37.5284 241.731 37.5758 241.489 37.6705C241.246 37.7652 241.064 37.8958 240.943 38.0625C240.822 38.2254 240.759 38.4129 240.756 38.625C240.748 38.7992 240.782 38.9527 240.858 39.0852C240.938 39.2178 241.051 39.3352 241.199 39.4375C241.35 39.536 241.532 39.6231 241.744 39.6989C241.956 39.7746 242.195 39.8409 242.46 39.8977L243.46 40.125C244.036 40.25 244.544 40.4167 244.983 40.625C245.426 40.8333 245.797 41.0814 246.097 41.3693C246.4 41.6572 246.629 41.9886 246.784 42.3636C246.939 42.7386 247.019 43.1591 247.023 43.625C247.019 44.3598 246.833 44.9905 246.466 45.517C246.098 46.0436 245.57 46.447 244.881 46.7273C244.195 47.0076 243.367 47.1477 242.398 47.1477C241.424 47.1477 240.576 47.0019 239.852 46.7102C239.129 46.4186 238.566 45.9754 238.165 45.3807C237.763 44.786 237.557 44.0341 237.545 43.125H240.239C240.261 43.5 240.362 43.8125 240.54 44.0625C240.718 44.3125 240.962 44.5019 241.273 44.6307C241.587 44.7595 241.951 44.8239 242.364 44.8239C242.742 44.8239 243.064 44.7727 243.33 44.6705C243.598 44.5682 243.805 44.4261 243.949 44.2443C244.093 44.0625 244.167 43.8542 244.17 43.6193C244.167 43.3996 244.098 43.2121 243.966 43.0568C243.833 42.8977 243.629 42.7614 243.352 42.6477C243.08 42.5303 242.731 42.4223 242.307 42.3239L241.091 42.0398C240.083 41.8087 239.29 41.4356 238.71 40.9205C238.131 40.4015 237.843 39.7008 237.847 38.8182C237.843 38.0985 238.036 37.4678 238.426 36.9261C238.816 36.3845 239.356 35.9621 240.045 35.6591C240.735 35.3561 241.521 35.2045 242.403 35.2045C243.305 35.2045 244.087 35.358 244.75 35.6648C245.417 35.9678 245.934 36.3939 246.301 36.9432C246.669 37.4924 246.856 38.1288 246.864 38.8523H244.17ZM252.523 47.1648C251.61 47.1648 250.822 46.9848 250.159 46.625C249.5 46.2614 248.992 45.7443 248.636 45.0739C248.284 44.3996 248.108 43.5985 248.108 42.6705C248.108 41.7689 248.286 40.9811 248.642 40.3068C248.998 39.6288 249.5 39.1023 250.148 38.7273C250.795 38.3485 251.559 38.1591 252.438 38.1591C253.059 38.1591 253.627 38.2557 254.142 38.4489C254.657 38.642 255.102 38.928 255.477 39.3068C255.852 39.6856 256.144 40.1534 256.352 40.7102C256.561 41.2633 256.665 41.8977 256.665 42.6136V43.3068H249.08V41.6932H254.08C254.076 41.3977 254.006 41.1345 253.869 40.9034C253.733 40.6723 253.545 40.4924 253.307 40.3636C253.072 40.2311 252.801 40.1648 252.494 40.1648C252.184 40.1648 251.905 40.2348 251.659 40.375C251.413 40.5114 251.218 40.6989 251.074 40.9375C250.93 41.1723 250.854 41.4394 250.847 41.7386V43.3807C250.847 43.7367 250.917 44.0492 251.057 44.3182C251.197 44.5833 251.396 44.7898 251.653 44.9375C251.911 45.0852 252.218 45.1591 252.574 45.1591C252.82 45.1591 253.044 45.125 253.244 45.0568C253.445 44.9886 253.617 44.8883 253.761 44.7557C253.905 44.6231 254.013 44.4602 254.085 44.267L256.636 44.3409C256.53 44.9129 256.297 45.411 255.938 45.8352C255.581 46.2557 255.114 46.5833 254.534 46.8182C253.955 47.0492 253.284 47.1648 252.523 47.1648ZM260.862 35.3636V47H258.084V35.3636H260.862ZM265.409 35.3636V47H262.631V35.3636H265.409Z" fill="#525252"/>
<rect x="206.5" y="21.5" width="72" height="39" rx="7.5" stroke="#525252"/>
<rect x="0.5" y="0.5" width="292" height="84" rx="3.5" stroke="#525252"/>
</svg>
