<svg width="16" height="20" viewBox="0 0 16 20" fill="none" xmlns="http://www.w3.org/2000/svg">
<path d="M6.75 18C6.75 18.6904 7.30964 19.25 8 19.25C8.69036 19.25 9.25 18.6904 9.25 18L6.75 18ZM8 2L8.88388 1.11612C8.39573 0.627961 7.60427 0.627961 7.11612 1.11612L8 2ZM13.1161 8.88388C13.6043 9.37204 14.3957 9.37204 14.8839 8.88388C15.372 8.39573 15.372 7.60427 14.8839 7.11612L13.1161 8.88388ZM1.11612 7.11612C0.627961 7.60427 0.627961 8.39573 1.11612 8.88388C1.60427 9.37204 2.39573 9.37204 2.88388 8.88388L1.11612 7.11612ZM9.25 18L9.25 2L6.75 2L6.75 18L9.25 18ZM7.11612 2.88388L13.1161 8.88388L14.8839 7.11612L8.88388 1.11612L7.11612 2.88388ZM7.11612 1.11612L1.11612 7.11612L2.88388 8.88388L8.88388 2.88388L7.11612 1.11612Z" fill="#76D490"/>
</svg>
